<?xml version="1.0" encoding="UTF-8"?>
<svg version="1.1" viewBox="0 0 148.744 22.68" xml:space="preserve" xmlns="http://www.w3.org/2000/svg" xmlns:cc="http://creativecommons.org/ns#" xmlns:dc="http://purl.org/dc/elements/1.1/" xmlns:rdf="http://www.w3.org/1999/02/22-rdf-syntax-ns#"><metadata><rdf:RDF><cc:Work rdf:about=""><dc:format>image/svg+xml</dc:format><dc:type rdf:resource="http://purl.org/dc/dcmitype/StillImage"/><dc:title/></cc:Work></rdf:RDF></metadata><defs><clipPath id="a"><path d="m0 0h111.558v17.01h-111.558z"/></clipPath></defs><g transform="matrix(1.333333 0 0 -1.333333 0 22.68)"><g clip-path="url(#a)"><g transform="translate(4.59,7.6088)"><path d="m0 0h6.311v2.094s-5.18 2e-3 -5.87 0c-3.098-8e-3 -5.031-1.982-5.028-4.764 5e-3 -2.778 2.073-4.74 5.168-4.732h5.73v2.083h-6.39c-0.927 0-2.13 1.162-2.13 2.657s1.206 2.662 2.209 2.662" fill="#000001"/></g><path d="m39.715 0.202h-2.341v11.874h2.341z" fill="#000001"/><g transform="translate(40.8132,7.4585)"><path d="m0 0c0.377 0.12 1.489 0.737 3.166 0.412 1.679-0.33 2.814-2.241 0.63-7.117-0.355-0.661 0.641-0.753 0.641-0.753l1.603 0.191s2.685 5.655 0.579 8.051-6.433 1.434-6.718 1.252c-0.592-0.379-0.28-2.151 0.099-2.036" fill="#000001"/></g><g transform="translate(81.7751,9.7002)"><path d="m0 0h-3.275v1.779h-2.377v-1.779h-2.054v-2.182h2.054v-7.315h2.377v7.315h3.275z" fill="#000001"/></g><g transform="translate(90.9724,9.7002)"><path d="m0 0h-3.275v1.779h-2.378v-1.779h-2.053v-2.182h2.053v-7.315h2.378v7.315h3.275z" fill="#000001"/></g><g transform="translate(24.6091,6.642)"><path d="m0 0c0 1.392-1.199 3.063-3.527 3.063h-7.633v-2.1h7.616c0.742 0 1.166-0.404 1.166-0.937v-4.375h-6.76c-0.711 0-1.165 0.439-1.165 0.97 0 0.533 0.424 0.938 1.165 0.938h5.93l-2e-3 2.004s-4.334 6e-3 -5.933 6e-3c-2.329 0-3.531-1.672-3.531-3.062 4e-3 -1.761 1.616-2.947 3.568-2.943h9.106v6.413z" fill="#000001"/></g><g transform="translate(61.7536,6.642)"><path d="m0 0c0 1.392-1.199 3.063-3.527 3.063h-7.633v-2.1h7.616c0.742 0 1.166-0.404 1.166-0.937v-4.375h-6.76c-0.711 0-1.165 0.439-1.165 0.97 0 0.533 0.424 0.938 1.165 0.938h5.931l-3e-3 2.004s-4.334 6e-3 -5.933 6e-3c-2.329 0-3.531-1.672-3.531-3.062 4e-3 -1.761 1.616-2.947 3.568-2.943h9.106v6.413z" fill="#000001"/></g><path d="m28.449 0.202h-2.354v9.499h2.354z" fill="#000001"/><g transform="translate(29.53,7.4311)"><path d="m0 0c0.377 0.12 0.952 0.737 2.629 0.412 1.071-0.21 1.724-0.974 1.651-2.83-0.02-0.506 2.241-0.327 2.244 0.059 0.011 1.518 0.199 2.605-1.103 3.803-1.604 1.475-5.235 0.774-5.52 0.592-0.592-0.379-0.28-2.151 0.099-2.036" fill="#000001"/></g><path d="m65.592 0.202h-2.354v9.499h2.354z" fill="#000001"/><g transform="translate(66.6725,7.4311)"><path d="m0 0c0.377 0.12 0.952 0.737 2.63 0.412 1.07-0.21 1.724-0.974 1.649-2.83-0.019-0.506 2.242-0.327 2.244 0.059 0.012 1.518 0.2 2.605-1.102 3.803-1.604 1.475-5.234 0.774-5.521 0.592-0.591-0.379-0.279-2.151 0.1-2.036" fill="#000001"/></g><g transform="translate(105.0319,9.3213)"><path d="m0 0c-1.535 0.466-2.384 2.158-1.892 3.78 0.17 0.563 0.479 1.043 0.873 1.411 0 0 1.027 1.007 2.643 0.448-0.018 0-0.035 2e-3 -0.053 2e-3 -0.977 0-1.772-0.875-1.772-1.955 0-1.079 0.795-1.954 1.772-1.954 0.772 0 1.428 0.546 1.67 1.306l-1e-3 1e-3s0.057 0.165 0.091 0.432c5e-3 0.045 0.01 0.099 0.01 0.099 0.059 0.681-0.059 1.887-1.386 2.847-1.807 1.272-4.346 1.142-4.346 1.142-4.508 0-8.166-3.736-8.166-8.345 0-4.608 3.658-8.341 8.166-8.341h6.061v11.224c-0.491-1.624-2.134-2.562-3.67-2.097" fill="#fcb800"/></g><g transform="translate(110.4294,1.1899)"><path d="m0 0h0.176c0.151 0 0.286 7e-3 0.286 0.179 0 0.143-0.123 0.167-0.238 0.167h-0.224zm-0.17 0.482h0.421c0.259 0 0.383-0.102 0.383-0.31 0-0.198-0.127-0.28-0.287-0.297l0.31-0.482h-0.182l-0.296 0.468h-0.179v-0.468h-0.17zm0.364-1.34c0.431 0 0.765 0.344 0.765 0.799 0 0.448-0.334 0.79-0.765 0.79-0.437 0-0.771-0.342-0.771-0.79 0-0.455 0.334-0.799 0.771-0.799m0 1.725c0.508 0 0.935-0.4 0.935-0.926 0-0.535-0.427-0.936-0.935-0.936-0.512 0-0.94 0.401-0.94 0.936 0 0.526 0.428 0.926 0.94 0.926" fill="#000001"/></g></g></g></svg>
