<?xml version="1.0" encoding="utf-8"?>
<!-- Generator: Adobe Illustrator 19.0.0, SVG Export Plug-In . SVG Version: 6.00 Build 0)  -->
<svg version="1.1" id="layer" xmlns="http://www.w3.org/2000/svg" xmlns:xlink="http://www.w3.org/1999/xlink" x="0px" y="0px"
	 viewBox="-153 -46 652 652" style="enable-background:new -153 -46 652 652;" xml:space="preserve">
<style type="text/css">
	.st0{fill:#000106;}
</style>
<g id="Symbols">
	<g transform="translate(-560.000000, -62.000000)">
		<g id="Header-Default">
			<g id="Logo" transform="translate(560.000000, 62.000000)">
				<polyline id="Fill-1" class="st0" points="-63.4,334 -72.2,259.2 -73.1,259.2 -83,334 -110.9,334 -131.1,216.3 -105.6,216.3 
					-95,302.3 -94,302.3 -84.4,216.3 -60.4,216.3 -51.4,302.3 -50.3,302.3 -39.8,216.3 -14.9,216.3 -35.6,334 -63.4,334 				"/>
				<polyline id="Fill-4" class="st0" points="-0.5,334 -0.5,216.3 57.5,216.3 57.5,236.7 24.3,236.7 24.3,263.6 53.4,263.6 
					53.4,283.9 24.3,283.9 24.3,313.6 58.8,313.6 58.8,334 -0.5,334 				"/>
				<polyline id="Fill-6" class="st0" points="199.3,334 186.3,289.1 178.4,301.8 178.4,334 154.4,334 154.4,216.3 178.4,216.3 
					178.4,265.6 179.6,265.6 199.3,216.3 225.4,216.3 202.9,265 225.8,334 199.3,334 				"/>
				<polyline id="Fill-5" class="st0" points="76.9,334 76.9,216.3 135,216.3 135,236.7 101.8,236.7 101.8,263.6 130.9,263.6 
					130.9,283.9 101.8,283.9 101.8,313.6 136.3,313.6 136.3,334 76.9,334 				"/>
				<path id="Fill-7" class="st0" d="M265,316.3h6c10.4,0,12.5-6.1,12.5-11.2v-59.9c0-5.1-2.2-11.2-12.5-11.2h-6V316.3L265,316.3z
					 M240.2,334V216.3H280c19.6,0,28.4,9.4,28.4,30.4v58.3c0,21.4-15.3,29-28.4,29H240.2L240.2,334z"/>
				<path id="Fill-8" class="st0" d="M350.1,293.3h18.5l-7.9-57.6h-2.1L350.1,293.3L350.1,293.3z M374.2,334l-3.3-22.1h-23.4
					l-3.4,22.1h-24.5L341,216.3h37.4L399.7,334H374.2L374.2,334z"/>
				<polyline id="Fill-9" class="st0" points="422,334 422,287.3 399.9,216.3 425.6,216.3 433.6,257.2 435.2,257.2 443.7,216.3 
					468.9,216.3 446.8,285.3 446.8,334 422,334 				"/>
			</g>
		</g>
	</g>
</g>
</svg>
